<svg width="50" height="40" viewBox="0 0 50 40" fill="none" xmlns="http://www.w3.org/2000/svg">
<path d="M46.0013 15.332C46.0013 17.9094 43.912 19.9987 41.3346 19.9987C38.7573 19.9987 36.668 17.9094 36.668 15.332C36.668 12.7547 38.7573 10.6654 41.3346 10.6654C43.912 10.6654 46.0013 12.7547 46.0013 15.332Z" fill="#FF8300"/>
<path d="M13.3346 15.332C13.3346 17.9094 11.2453 19.9987 8.66797 19.9987C6.09064 19.9987 4.0013 17.9094 4.0013 15.332C4.0013 12.7547 6.09064 10.6654 8.66797 10.6654C11.2453 10.6654 13.3346 12.7547 13.3346 15.332Z" fill="#FF8300"/>
<path d="M32.0013 8.33203C32.0013 12.198 28.8673 15.332 25.0013 15.332C21.1353 15.332 18.0013 12.198 18.0013 8.33203C18.0013 4.46604 21.1353 1.33203 25.0013 1.33203C28.8673 1.33203 32.0013 4.46604 32.0013 8.33203Z" fill="#E31837"/>
<path d="M36.668 38.6654H48.3346V33.9987C48.3346 30.1327 45.2006 26.9987 41.3346 26.9987C39.1049 26.9987 37.1186 28.0412 35.8367 29.6654M36.668 38.6654H13.3346M36.668 38.6654V33.9987C36.668 32.4675 36.373 31.0051 35.8367 29.6654M13.3346 38.6654H1.66797V33.9987C1.66797 30.1327 4.80198 26.9987 8.66797 26.9987C10.8977 26.9987 12.884 28.0412 14.1659 29.6654M13.3346 38.6654V33.9987C13.3346 32.4675 13.6296 31.0051 14.1659 29.6654M14.1659 29.6654C15.8861 25.3678 20.0892 22.332 25.0013 22.332C29.9134 22.332 34.1165 25.3678 35.8367 29.6654M32.0013 8.33203C32.0013 12.198 28.8673 15.332 25.0013 15.332C21.1353 15.332 18.0013 12.198 18.0013 8.33203C18.0013 4.46604 21.1353 1.33203 25.0013 1.33203C28.8673 1.33203 32.0013 4.46604 32.0013 8.33203ZM46.0013 15.332C46.0013 17.9094 43.912 19.9987 41.3346 19.9987C38.7573 19.9987 36.668 17.9094 36.668 15.332C36.668 12.7547 38.7573 10.6654 41.3346 10.6654C43.912 10.6654 46.0013 12.7547 46.0013 15.332ZM13.3346 15.332C13.3346 17.9094 11.2453 19.9987 8.66797 19.9987C6.09064 19.9987 4.0013 17.9094 4.0013 15.332C4.0013 12.7547 6.09064 10.6654 8.66797 10.6654C11.2453 10.6654 13.3346 12.7547 13.3346 15.332Z" stroke="#333541" stroke-width="2.5" stroke-linecap="round" stroke-linejoin="round"/>
</svg>
