<svg width="56" height="56" viewBox="0 0 56 56" fill="none" xmlns="http://www.w3.org/2000/svg">
<path d="M49.5938 17.5065H6.42708C6.10492 17.5065 5.84375 17.2461 5.84375 16.9239V14.0065C5.84375 11.2758 8.06295 9.80273 9.25499 9.37074C9.31393 9.34938 9.37302 9.33984 9.43572 9.33984H45.5104C48.2411 9.33984 49.7142 11.559 50.1462 12.7511C50.1675 12.81 50.1771 12.8718 50.1771 12.9345V16.9232C50.1771 17.2453 49.9159 17.5065 49.5938 17.5065Z" fill="#FF8300" stroke="#333541" stroke-width="2.5"/>
<path d="M45.5078 8.75391H10.5078C7.60832 8.75391 5.25781 11.1044 5.25781 14.0039V45.5039C5.25781 48.4034 7.60832 50.7539 10.5078 50.7539H45.5078C48.4073 50.7539 50.7578 48.4034 50.7578 45.5039V14.0039C50.7578 11.1044 48.4073 8.75391 45.5078 8.75391Z" stroke="#333541" stroke-width="2.5" stroke-linejoin="round"/>
<path d="M32.3828 28.0039C33.8326 28.0039 35.0078 26.8287 35.0078 25.3789C35.0078 23.9292 33.8326 22.7539 32.3828 22.7539C30.9331 22.7539 29.7578 23.9292 29.7578 25.3789C29.7578 26.8287 30.9331 28.0039 32.3828 28.0039Z" fill="#E31837"/>
<path d="M41.1328 28.0039C42.5826 28.0039 43.7578 26.8287 43.7578 25.3789C43.7578 23.9292 42.5826 22.7539 41.1328 22.7539C39.6831 22.7539 38.5078 23.9292 38.5078 25.3789C38.5078 26.8287 39.6831 28.0039 41.1328 28.0039Z" fill="#333541"/>
<path d="M32.3828 36.7539C33.8326 36.7539 35.0078 35.5787 35.0078 34.1289C35.0078 32.6792 33.8326 31.5039 32.3828 31.5039C30.9331 31.5039 29.7578 32.6792 29.7578 34.1289C29.7578 35.5787 30.9331 36.7539 32.3828 36.7539Z" fill="#333541"/>
<path d="M41.1328 36.7539C42.5826 36.7539 43.7578 35.5787 43.7578 34.1289C43.7578 32.6792 42.5826 31.5039 41.1328 31.5039C39.6831 31.5039 38.5078 32.6792 38.5078 34.1289C38.5078 35.5787 39.6831 36.7539 41.1328 36.7539Z" fill="#333541"/>
<path d="M14.8828 36.7539C16.3326 36.7539 17.5078 35.5787 17.5078 34.1289C17.5078 32.6792 16.3326 31.5039 14.8828 31.5039C13.4331 31.5039 12.2578 32.6792 12.2578 34.1289C12.2578 35.5787 13.4331 36.7539 14.8828 36.7539Z" fill="#333541"/>
<path d="M23.6328 36.7539C25.0826 36.7539 26.2578 35.5787 26.2578 34.1289C26.2578 32.6792 25.0826 31.5039 23.6328 31.5039C22.1831 31.5039 21.0078 32.6792 21.0078 34.1289C21.0078 35.5787 22.1831 36.7539 23.6328 36.7539Z" fill="#333541"/>
<path d="M14.8828 45.5039C16.3326 45.5039 17.5078 44.3287 17.5078 42.8789C17.5078 41.4292 16.3326 40.2539 14.8828 40.2539C13.4331 40.2539 12.2578 41.4292 12.2578 42.8789C12.2578 44.3287 13.4331 45.5039 14.8828 45.5039Z" fill="#333541"/>
<path d="M23.6328 45.5039C25.0826 45.5039 26.2578 44.3287 26.2578 42.8789C26.2578 41.4292 25.0826 40.2539 23.6328 40.2539C22.1831 40.2539 21.0078 41.4292 21.0078 42.8789C21.0078 44.3287 22.1831 45.5039 23.6328 45.5039Z" fill="#333541"/>
<path d="M32.3828 45.5039C33.8326 45.5039 35.0078 44.3287 35.0078 42.8789C35.0078 41.4292 33.8326 40.2539 32.3828 40.2539C30.9331 40.2539 29.7578 41.4292 29.7578 42.8789C29.7578 44.3287 30.9331 45.5039 32.3828 45.5039Z" fill="#333541"/>
<path d="M14.0078 5.25391V8.75391" stroke="#333541" stroke-width="2.5" stroke-linecap="round" stroke-linejoin="round"/>
<path d="M42.0078 5.25391V8.75391" stroke="#333541" stroke-width="2.5" stroke-linecap="round" stroke-linejoin="round"/>
<path d="M50.7578 17.5039H5.25781" stroke="#333541" stroke-width="2.5" stroke-linejoin="round"/>
</svg>
