<svg width="56" height="56" viewBox="0 0 56 56" fill="none" xmlns="http://www.w3.org/2000/svg">
<path d="M38.5 4.67188H28V11.6719H38.5V4.67188Z" fill="#E31837"/>
<path d="M38.5 44.3398H28V51.3398H38.5V44.3398Z" fill="#E31837"/>
<path d="M25.6693 17.5039H12.8359V24.5039H25.6693V17.5039Z" fill="#FF8300"/>
<path d="M25.6693 43.1719H12.8359V50.1719H25.6693V43.1719Z" fill="#FF8300"/>
<path d="M8.75 10.5039H5.25C4.2835 10.5039 3.5 11.2874 3.5 12.2539V49.0039C3.5 49.9704 4.2835 50.7539 5.25 50.7539H8.75C9.7165 50.7539 10.5 49.9704 10.5 49.0039V12.2539C10.5 11.2874 9.7165 10.5039 8.75 10.5039Z" stroke="#333541" stroke-width="2.5" stroke-linejoin="round"/>
<path d="M12.25 24.5039H26.25" stroke="#FF8300" stroke-width="2.5" stroke-linecap="round" stroke-linejoin="round"/>
<path d="M12.25 43.7539H26.25" stroke="#FF8300" stroke-width="2.5" stroke-linecap="round" stroke-linejoin="round"/>
<path d="M24.5 17.5039H14C13.0335 17.5039 12.25 18.2874 12.25 19.2539V49.0039C12.25 49.9704 13.0335 50.7539 14 50.7539H24.5C25.4665 50.7539 26.25 49.9704 26.25 49.0039V19.2539C26.25 18.2874 25.4665 17.5039 24.5 17.5039Z" stroke="#333541" stroke-width="2.5" stroke-linejoin="round"/>
<path d="M36.75 5.25391H29.75C28.7835 5.25391 28 6.03741 28 7.00391V49.0039C28 49.9704 28.7835 50.7539 29.75 50.7539H36.75C37.7165 50.7539 38.5 49.9704 38.5 49.0039V7.00391C38.5 6.03741 37.7165 5.25391 36.75 5.25391Z" stroke="#333541" stroke-width="2.5" stroke-linejoin="round"/>
<path d="M46.2063 10.5157L41.7876 10.9806C40.5713 11.1085 39.6898 12.246 39.8265 13.5071L43.6458 48.681C43.7837 49.9421 44.8894 50.8685 46.1057 50.7416L50.5244 50.2768C51.7407 50.1488 52.6222 49.0113 52.4855 47.7502L48.6716 12.5818C48.5283 11.3152 47.4226 10.3877 46.2063 10.5157Z" stroke="#333541" stroke-width="2.5" stroke-linejoin="round"/>
</svg>
